<?xml version="1.0" encoding="UTF-8"?>
<!DOCTYPE svg PUBLIC "-//W3C//DTD SVG 1.1//EN" "http://www.w3.org/Graphics/SVG/1.1/DTD/svg11.dtd">
<svg version="1.1" xmlns="http://www.w3.org/2000/svg" xmlns:xlink="http://www.w3.org/1999/xlink" x="0" y="0" width="700" height="700" viewBox="0, 0, 700, 700">
  <g id="Layer_1">
    <g>
      <path d="M347.091,688.914 C158.307,688.914 5.267,535.874 5.267,347.091 C5.267,158.307 158.307,5.267 347.091,5.267 C535.874,5.267 688.914,158.307 688.914,347.091 C688.914,535.874 535.874,688.914 347.091,688.914 z" fill="#AEA321"/>
      <path d="M347.091,688.914 C158.307,688.914 5.267,535.874 5.267,347.091 C5.267,158.307 158.307,5.267 347.091,5.267 C535.874,5.267 688.914,158.307 688.914,347.091 C688.914,535.874 535.874,688.914 347.091,688.914 z" fill-opacity="0" stroke="#000000" stroke-width="4"/>
    </g>
    <g>
      <path d="M365.574,695.733 C183.233,695.733 35.416,547.916 35.416,365.574 C35.416,183.233 183.233,35.416 365.574,35.416 C547.916,35.416 695.733,183.233 695.733,365.574 C695.733,547.916 547.916,695.733 365.574,695.733 z" fill="#FFEF32"/>
      <path d="M365.574,695.733 C183.233,695.733 35.416,547.916 35.416,365.574 C35.416,183.233 183.233,35.416 365.574,35.416 C547.916,35.416 695.733,183.233 695.733,365.574 C695.733,547.916 547.916,695.733 365.574,695.733 z" fill-opacity="0" stroke="#000000" stroke-width="4"/>
    </g>
    <g>
      <path d="M365.574,667.465 C198.845,667.465 63.684,532.304 63.684,365.574 C63.684,198.845 198.845,63.684 365.574,63.684 C532.304,63.684 667.465,198.845 667.465,365.574 C667.465,532.304 532.304,667.465 365.574,667.465 z" fill="#988E21"/>
      <path d="M365.574,667.465 C198.845,667.465 63.684,532.304 63.684,365.574 C63.684,198.845 198.845,63.684 365.574,63.684 C532.304,63.684 667.465,198.845 667.465,365.574 C667.465,532.304 532.304,667.465 365.574,667.465 z" fill-opacity="0" stroke="#000000" stroke-width="2"/>
    </g>
    <g>
      <path d="M365.574,650.605 C206.027,650.605 76.688,522.992 76.688,365.574 C76.688,208.156 206.027,80.543 365.574,80.543 C525.121,80.543 654.46,208.156 654.46,365.574 C654.46,522.992 525.121,650.605 365.574,650.605 z" fill="#C9BD30"/>
      <path d="M365.574,650.605 C206.027,650.605 76.688,522.992 76.688,365.574 C76.688,208.156 206.027,80.543 365.574,80.543 C525.121,80.543 654.46,208.156 654.46,365.574 C654.46,522.992 525.121,650.605 365.574,650.605 z" fill-opacity="0" stroke="#000000" stroke-width="2"/>
    </g>
    <g>
      <path d="M481.198,237.428 C455.856,220.908 421.463,205.727 382.544,202.601 L382.544,157.505 L355.392,157.505 L355.392,203.048 C296.562,207.513 251.761,241.447 251.761,301.724 C251.761,350.393 281.628,370.932 342.721,387.453 L359.465,391.918 L359.465,468.716 C316.021,464.251 275.745,440.586 266.242,430.763 L238.637,483.897 C270.767,506.668 313.306,520.956 355.392,524.082 L355.392,573.643 L382.544,573.643 L382.544,524.528 C441.827,522.296 492.511,495.952 492.511,430.763 C492.511,372.718 452.688,353.072 389.332,336.998 L378.019,334.319 L378.019,257.074 C412.864,260.646 445.9,279.399 453.593,287.436 z M425.988,437.014 C425.988,457.553 409.244,468.716 378.019,469.609 L378.019,397.276 C407.886,406.652 425.988,416.475 425.988,437.014 z M316.021,291.901 C316.021,270.916 330.502,258.414 359.465,256.628 L359.465,328.961 C330.502,320.477 316.021,311.994 316.021,291.901 z" fill="#D8D031"/>
      <path d="M481.198,237.428 C455.856,220.908 421.463,205.727 382.544,202.601 L382.544,157.505 L355.392,157.505 L355.392,203.048 C296.562,207.513 251.761,241.447 251.761,301.724 C251.761,350.393 281.628,370.932 342.721,387.453 L359.465,391.918 L359.465,468.716 C316.021,464.251 275.745,440.586 266.242,430.763 L238.637,483.897 C270.767,506.668 313.306,520.956 355.392,524.082 L355.392,573.643 L382.544,573.643 L382.544,524.528 C441.827,522.296 492.511,495.952 492.511,430.763 C492.511,372.718 452.688,353.072 389.332,336.998 L378.019,334.319 L378.019,257.074 C412.864,260.646 445.9,279.399 453.593,287.436 z M425.988,437.014 C425.988,457.553 409.244,468.716 378.019,469.609 L378.019,397.276 C407.886,406.652 425.988,416.475 425.988,437.014 z M316.021,291.901 C316.021,270.916 330.502,258.414 359.465,256.628 L359.465,328.961 C330.502,320.477 316.021,311.994 316.021,291.901 z" fill-opacity="0" stroke="#6E6F0D" stroke-width="7"/>
    </g>
  </g>
</svg>
